<svg xmlns="http://www.w3.org/2000/svg" viewBox="0 0 900 480" font-family="Segoe UI, Roboto, sans-serif">
  <rect width="900" height="480" fill="#0E0E11"/>
  <rect x="20" y="20" width="860" height="440" rx="6" fill="#0E0E11" stroke="#2A2A33"/>
  <text x="450" y="50" fill="#80D8FF" font-size="18" font-weight="600" text-anchor="middle">
    sample_report.html — what the analyser produces
  </text>

  <!-- Title -->
  <text x="40" y="90" fill="#80D8FF" font-size="20" font-weight="600">SOME/IP Diagnostics report</text>
  <text x="40" y="108" fill="#9E9E9E" font-size="11">source: testdata/large_realistic.pcap | generated 2026-06-05 17:02:11 | suite v2</text>

  <!-- Capture summary KPIs -->
  <text x="40" y="140" fill="#FFD180" font-size="13" font-weight="600">Capture summary</text>
  <g transform="translate(40,150)" font-size="11">
    <rect width="110" height="50" rx="6" fill="#1A1A1F"/>
    <text x="55" y="22" fill="#80D8FF" font-size="18" font-weight="600" text-anchor="middle">12,575</text>
    <text x="55" y="40" fill="#9E9E9E" text-anchor="middle">Messages</text>

    <rect x="120" width="110" height="50" rx="6" fill="#1A1A1F"/>
    <text x="175" y="22" fill="#80D8FF" font-size="18" font-weight="600" text-anchor="middle">10,736</text>
    <text x="175" y="40" fill="#9E9E9E" text-anchor="middle">doip</text>

    <rect x="240" width="110" height="50" rx="6" fill="#1A1A1F"/>
    <text x="295" y="22" fill="#80D8FF" font-size="18" font-weight="600" text-anchor="middle">1,839</text>
    <text x="295" y="40" fill="#9E9E9E" text-anchor="middle">someip-sd</text>
  </g>

  <!-- SD section -->
  <text x="40" y="240" fill="#FFD180" font-size="13" font-weight="600">SOME/IP-SD timing</text>
  <g transform="translate(40,250)" font-size="11">
    <rect width="90" height="50" rx="6" fill="#1A1A1F"/>
    <text x="45" y="22" fill="#80D8FF" font-size="18" font-weight="600" text-anchor="middle">10</text>
    <text x="45" y="40" fill="#9E9E9E" text-anchor="middle">ECUs</text>

    <rect x="100" width="90" height="50" rx="6" fill="#1A1A1F"/>
    <text x="145" y="22" fill="#80D8FF" font-size="18" font-weight="600" text-anchor="middle">7</text>
    <text x="145" y="40" fill="#9E9E9E" text-anchor="middle">Services</text>

    <rect x="200" width="120" height="50" rx="6" fill="#1A1A1F"/>
    <text x="260" y="22" fill="#80D8FF" font-size="18" font-weight="600" text-anchor="middle">1,835</text>
    <text x="260" y="40" fill="#9E9E9E" text-anchor="middle">OfferService</text>

    <rect x="330" width="120" height="50" rx="6" fill="#1A1A1F"/>
    <text x="390" y="22" fill="#80D8FF" font-size="18" font-weight="600" text-anchor="middle">2</text>
    <text x="390" y="40" fill="#9E9E9E" text-anchor="middle">FindService</text>

    <rect x="460" width="120" height="50" rx="6" fill="#1A1A1F" stroke="#EF9A9A"/>
    <text x="520" y="22" fill="#EF9A9A" font-size="18" font-weight="600" text-anchor="middle">1</text>
    <text x="520" y="40" fill="#9E9E9E" text-anchor="middle">Violation</text>
  </g>

  <!-- DoIP section -->
  <text x="40" y="340" fill="#FFD180" font-size="13" font-weight="600">DoIP sessions</text>
  <g transform="translate(40,350)" font-size="11">
    <rect width="90" height="50" rx="6" fill="#1A1A1F"/>
    <text x="45" y="22" fill="#80D8FF" font-size="18" font-weight="600" text-anchor="middle">6</text>
    <text x="45" y="40" fill="#9E9E9E" text-anchor="middle">Sessions</text>

    <rect x="100" width="110" height="50" rx="6" fill="#1A1A1F"/>
    <text x="155" y="22" fill="#80D8FF" font-size="18" font-weight="600" text-anchor="middle">3,505</text>
    <text x="155" y="40" fill="#9E9E9E" text-anchor="middle">UDS exchanges</text>

    <rect x="220" width="90" height="50" rx="6" fill="#1A1A1F" stroke="#EF9A9A"/>
    <text x="265" y="22" fill="#EF9A9A" font-size="18" font-weight="600" text-anchor="middle">254</text>
    <text x="265" y="40" fill="#9E9E9E" text-anchor="middle">NRCs</text>

    <rect x="320" width="100" height="50" rx="6" fill="#1A1A1F" stroke="#FFD54F"/>
    <text x="370" y="22" fill="#FFD54F" font-size="18" font-weight="600" text-anchor="middle">2</text>
    <text x="370" y="40" fill="#9E9E9E" text-anchor="middle">Retransmits</text>

    <rect x="430" width="120" height="50" rx="6" fill="#1A1A1F"/>
    <text x="490" y="22" fill="#80D8FF" font-size="18" font-weight="600" text-anchor="middle">3.33</text>
    <text x="490" y="40" fill="#9E9E9E" text-anchor="middle">Avg RTT (ms)</text>
  </g>

  <text x="450" y="445" fill="#9E9E9E" font-size="10" text-anchor="middle">
    (Followed in the actual report by per-ECU SD timing, violation list, and per-session UDS detail tables.)
  </text>
</svg>
